<svg width="133" height="48" viewBox="0 0 133 48" fill="none" xmlns="http://www.w3.org/2000/svg">
<path d="M18.52 24.48C20.4667 24.72 21.9067 25.3467 22.84 26.36C23.8 27.3467 24.28 28.5733 24.28 30.04C24.28 31.5067 23.7333 32.8933 22.64 34.2C21.5733 35.5067 20.2 36.52 18.52 37.24C17.7733 37.5333 16.7867 37.7467 15.56 37.88C14.36 38.0133 13.12 38.08 11.84 38.08C9.70667 38.08 7.52 37.88 5.28 37.48C4.88 37.4 4.45333 37.2 4 36.88C3.57333 36.56 3.36 36.0933 3.36 35.48C3.33333 33.0267 3.24 29.6133 3.08 25.24L3.04 23.04C2.93333 19.6267 2.88 16.9467 2.88 15C2.88 14.6533 3.08 14.2533 3.48 13.8C3.90667 13.32 4.41333 13.0533 5 13C5.34667 13 5.68 12.9867 6 12.96C9.01333 12.6667 11.0267 12.52 12.04 12.52C14.04 12.52 15.8 12.72 17.32 13.12C18.8667 13.4933 20.1467 14.1867 21.16 15.2C21.5333 15.6267 21.84 16.1733 22.08 16.84C22.32 17.48 22.44 18.1067 22.44 18.72C22.4667 20.0267 22.12 21.2267 21.4 22.32C20.7067 23.4133 19.7467 24.1333 18.52 24.48ZM12.28 15.92C11.3733 15.92 10.4267 15.9733 9.44 16.08C8.48 16.1867 7.66667 16.32 7 16.48L7.24 24.04L8.68 24C11 23.76 12.7067 23.56 13.8 23.4C14.4933 23.24 15.1733 22.9333 15.84 22.48C16.5067 22 17.0533 21.5067 17.48 21C17.9333 20.4667 18.16 20.0667 18.16 19.8C18.16 19.4 18.08 19 17.92 18.6C17.76 18.1733 17.5867 17.8667 17.4 17.68C16.68 16.9867 15.9467 16.52 15.2 16.28C14.4533 16.04 13.48 15.92 12.28 15.92ZM7.36 34.56C8.72 34.7467 10.0133 34.84 11.24 34.84C13.9333 34.84 16.0533 34.4933 17.6 33.8C19.1733 33.08 19.96 31.72 19.96 29.72C19.96 28.92 19.36 28.2533 18.16 27.72C16.96 27.1867 15.6667 26.92 14.28 26.92C13.3467 26.92 12.16 27.0267 10.72 27.24C9.57333 27.4 8.45333 27.5067 7.36 27.56C7.41333 29.16 7.44 30.1733 7.44 30.6C7.44 31.4267 7.42667 32.0533 7.4 32.48L7.36 34.56ZM27.6594 29.52C27.6594 28.5067 27.846 27.4933 28.2194 26.48C28.5927 25.44 29.086 24.4933 29.6994 23.64C30.3127 22.7867 31.286 22.0933 32.6194 21.56C33.9527 21 35.1394 20.72 36.1794 20.72C37.246 20.72 38.326 20.8667 39.4194 21.16C40.5394 21.4533 41.3127 21.9067 41.7394 22.52C42.726 23.9067 43.2194 25.2667 43.2194 26.6C43.2194 27.32 43.0594 27.9333 42.7394 28.44C42.446 28.9467 42.0194 29.4933 41.4594 30.08C41.006 30.56 40.286 30.88 39.2994 31.04C38.3394 31.2 37.3794 31.28 36.4194 31.28C35.806 31.28 35.0594 31.2267 34.1794 31.12C33.2994 30.9867 32.446 30.8267 31.6194 30.64C31.6727 31.1733 31.806 31.6933 32.0194 32.2C32.2327 32.7067 32.486 33.0933 32.7794 33.36C33.3127 33.8667 33.8594 34.1867 34.4194 34.32C35.006 34.4533 35.7527 34.52 36.6594 34.52C37.6194 34.52 38.5127 34.36 39.3394 34.04C40.006 33.8 40.5527 33.68 40.9794 33.68C41.486 33.68 41.8727 33.84 42.1394 34.16C42.406 34.4533 42.5394 34.84 42.5394 35.32C42.5394 35.9867 42.1527 36.5333 41.3794 36.96C40.606 37.3867 39.7127 37.7067 38.6994 37.92C37.7127 38.1067 36.9127 38.2 36.2994 38.2C35.046 38.2 33.8327 37.9733 32.6594 37.52C31.486 37.0667 30.5127 36.4267 29.7394 35.6C29.0994 34.8533 28.5927 33.96 28.2194 32.92C27.846 31.8533 27.6594 30.72 27.6594 29.52ZM36.3794 24.12C35.7927 24.12 35.206 24.24 34.6194 24.48C34.0327 24.6933 33.5527 25 33.1794 25.4C32.6994 25.9067 32.366 26.32 32.1794 26.64C32.0194 26.9333 31.9127 27.3467 31.8594 27.88C32.526 28.0933 33.9127 28.2 36.0194 28.2C37.166 28.2 38.046 28.0267 38.6594 27.68C39.2994 27.3333 39.6194 26.88 39.6194 26.32C39.6194 25.76 39.2727 25.2533 38.5794 24.8C37.886 24.3467 37.1527 24.12 36.3794 24.12ZM62.2419 38.16C61.3352 38.16 60.6419 38.0267 60.1619 37.76C59.6819 37.4667 59.1619 36.9333 58.6019 36.16C57.9085 36.7733 56.8685 37.2667 55.4819 37.64C54.1219 38.0133 52.9485 38.2 51.9619 38.2C50.3352 38.2 49.0152 37.76 48.0019 36.88C47.0152 35.9733 46.5219 34.6533 46.5219 32.92C46.5219 32.1733 46.7219 31.4933 47.1219 30.88C47.5485 30.24 48.0952 29.68 48.7619 29.2C49.5085 28.6933 50.3885 28.2933 51.4019 28C52.4419 27.7067 53.3885 27.56 54.2419 27.56C55.6819 27.56 56.9619 27.6933 58.0819 27.96V27.92C58.0819 26.48 57.7219 25.4933 57.0019 24.96C56.3085 24.4 55.1885 24.12 53.6419 24.12C52.6552 24.12 51.8019 24.56 51.0819 25.44C50.8152 25.7867 50.2552 25.96 49.4019 25.96C48.9752 25.96 48.6552 25.7867 48.4419 25.44C48.2552 25.0667 48.1619 24.6933 48.1619 24.32C48.1619 23.5467 48.4819 22.88 49.1219 22.32C49.7885 21.76 50.5885 21.3467 51.5219 21.08C52.4552 20.7867 53.3219 20.64 54.1219 20.64C54.8952 20.64 55.8152 20.8 56.8819 21.12C57.9485 21.44 58.8152 21.8667 59.4819 22.4C60.2819 23.0933 60.8952 23.9067 61.3219 24.84C61.7752 25.7467 62.0019 26.7467 62.0019 27.84C62.0019 28.1867 61.9752 28.7067 61.9219 29.4C61.8685 30.2 61.8419 30.8533 61.8419 31.36C61.8419 31.6 61.8152 31.9067 61.7619 32.28C61.7085 32.76 61.6819 33.16 61.6819 33.48C61.6819 33.8267 61.7885 34.16 62.0019 34.48C62.2152 34.8 62.5085 35.0667 62.8819 35.28C63.2285 35.4667 63.4552 35.6667 63.5619 35.88C63.6685 36.0933 63.7219 36.3333 63.7219 36.6C63.7219 36.8667 63.5485 37.2 63.2019 37.6C62.8819 37.9733 62.5619 38.16 62.2419 38.16ZM54.2419 30.52C53.2019 30.52 52.2819 30.72 51.4819 31.12C50.6819 31.52 50.2819 32.2267 50.2819 33.24C50.2819 33.7467 50.4552 34.1733 50.8019 34.52C51.1752 34.8667 51.5752 35.04 52.0019 35.04C53.1485 35.04 54.1085 34.92 54.8819 34.68C55.6552 34.44 56.5885 34 57.6819 33.36C57.8152 32.9333 57.8952 32.3333 57.9219 31.56C57.9219 31.2667 57.9352 31.04 57.9619 30.88C56.5219 30.64 55.2819 30.52 54.2419 30.52ZM66.7294 24.16C66.356 24.1067 66.0494 23.9467 65.8094 23.68C65.596 23.4133 65.4894 23.0933 65.4894 22.72C65.4894 22.5333 65.5294 22.3333 65.6094 22.12C65.716 21.9067 65.8627 21.72 66.0494 21.56C66.396 21.2133 67.3294 21.04 68.8494 21.04C69.0627 20 69.1694 18.9467 69.1694 17.88C69.1694 17.48 69.156 17.1333 69.1294 16.84C69.1027 16.5467 69.0894 16.32 69.0894 16.16C69.0894 15.5733 69.3027 15.1333 69.7294 14.84C70.1827 14.5467 70.6894 14.4 71.2494 14.4C71.9427 14.4 72.4094 14.5733 72.6494 14.92C72.916 15.2667 73.0494 15.9067 73.0494 16.84C73.0494 18.2267 72.9294 19.5867 72.6894 20.92C73.116 20.92 73.7027 20.8933 74.4494 20.84C75.4627 20.7867 76.196 20.76 76.6494 20.76C77.1027 20.76 77.4894 20.88 77.8094 21.12C78.156 21.3333 78.3294 21.64 78.3294 22.04C78.3294 23.08 77.8627 23.6933 76.9294 23.88C75.9427 24.12 74.4094 24.2667 72.3294 24.32C72.2494 25.36 72.2094 26.4933 72.2094 27.72C72.2094 29.64 72.3294 31.2133 72.5694 32.44C72.7294 33.2933 72.996 33.92 73.3694 34.32C73.7694 34.6933 74.356 34.88 75.1294 34.88C75.5827 34.88 76.0494 34.76 76.5294 34.52C76.8494 34.3333 77.1427 34.24 77.4094 34.24C77.7827 34.24 78.0494 34.36 78.2094 34.6C78.396 34.84 78.4894 35.16 78.4894 35.56C78.4894 36.3067 78.0894 36.9333 77.2894 37.44C76.4894 37.92 75.4627 38.16 74.2094 38.16C73.436 38.16 72.6494 37.9733 71.8494 37.6C71.076 37.2267 70.4227 36.76 69.8894 36.2C69.8094 36.12 69.6627 35.8133 69.4494 35.28C69.236 34.7467 69.0494 34.1733 68.8894 33.56C68.6227 32.3067 68.4894 30.5467 68.4894 28.28C68.4894 27.2933 68.5427 25.9733 68.6494 24.32L66.7294 24.16ZM83.7284 12.32C84.6618 12.4 85.4618 12.6533 86.1284 13.08C86.8218 13.48 87.1684 14.0933 87.1684 14.92C87.1684 15.5333 86.8884 16.0267 86.3284 16.4C85.7684 16.7467 85.0751 16.92 84.2484 16.92C83.4751 16.92 82.9418 16.72 82.6484 16.32C82.3551 15.92 82.2084 15.5067 82.2084 15.08C82.2084 14.3067 82.3018 13.6533 82.4884 13.12C82.6751 12.56 83.0884 12.2933 83.7284 12.32ZM82.9284 28.84V27.68C82.9284 26.3467 82.8618 25.1333 82.7284 24.04C82.6218 22.92 82.5551 22.2267 82.5284 21.96C82.5551 21.6667 82.7551 21.3867 83.1284 21.12C83.5018 20.8533 83.8351 20.72 84.1284 20.72C84.6351 20.72 85.1418 20.8267 85.6484 21.04C86.1818 21.2267 86.5151 21.4667 86.6484 21.76C86.7818 22.7467 86.8484 23.5067 86.8484 24.04C86.8484 25.2133 86.9018 27.1333 87.0084 29.8L87.0484 31.36L87.1284 32.88C87.1551 33.3067 87.1818 33.8133 87.2084 34.4C87.2351 34.9867 87.2484 35.6533 87.2484 36.4C87.2484 36.9067 86.9951 37.3333 86.4884 37.68C86.0084 38.0267 85.5018 38.2 84.9684 38.2C84.1951 38.2 83.6484 38.0267 83.3284 37.68C83.0351 37.3333 82.8884 36.7867 82.8884 36.04L82.9284 28.84ZM100.165 14.44C99.3647 14.44 98.8714 15.1067 98.6847 16.44C98.498 18.2533 98.4047 19.6267 98.4047 20.56C98.938 20.6133 99.498 20.64 100.085 20.64C100.458 20.64 100.938 20.6133 101.525 20.56L102.565 20.52C103.098 20.52 103.498 20.6133 103.765 20.8C104.031 20.9867 104.165 21.2933 104.165 21.72C104.165 22.3067 103.965 22.8133 103.565 23.24C103.191 23.64 102.751 23.84 102.245 23.84C100.325 23.84 99.0314 23.9333 98.3647 24.12C98.3647 25.7467 98.4447 28.0533 98.6047 31.04L98.6847 33L98.8447 36.12C98.898 36.8933 98.818 37.44 98.6047 37.76C98.418 38.0533 98.0047 38.2 97.3647 38.2C96.1914 38.2 95.4314 37.4933 95.0847 36.08C94.8714 35.04 94.698 33.5867 94.5647 31.72C94.4314 29.8533 94.3647 28.1867 94.3647 26.72C94.3647 25.9467 94.4047 25.0667 94.4847 24.08C94.4314 24.0533 94.2847 24.04 94.0447 24.04C93.8047 24.04 93.6314 24.0533 93.5247 24.08C92.7247 24.1333 92.138 24.16 91.7647 24.16C91.5247 24.16 91.2847 24 91.0447 23.68C90.8047 23.3333 90.6847 22.92 90.6847 22.44C90.6847 22.1733 90.778 21.9333 90.9647 21.72C91.1514 21.48 91.378 21.3067 91.6447 21.2C92.0447 20.9867 92.618 20.88 93.3647 20.88L94.5647 20.92C94.5647 17.1333 94.9914 14.5067 95.8447 13.04C96.6447 11.6533 97.9647 10.96 99.8047 10.96C100.871 10.96 101.845 11.2267 102.725 11.76C103.098 12 103.378 12.2933 103.565 12.64C103.778 12.9867 103.885 13.32 103.885 13.64C103.885 14.04 103.725 14.4533 103.405 14.88C103.111 15.3067 102.658 15.52 102.045 15.52C101.805 15.52 101.498 15.3333 101.125 14.96C100.991 14.8267 100.845 14.7067 100.685 14.6C100.525 14.4933 100.351 14.44 100.165 14.44ZM111.523 46.16C110.536 46.16 109.696 45.9867 109.003 45.64C108.309 45.32 107.789 44.92 107.443 44.44C107.123 43.9867 106.963 43.5867 106.963 43.24C106.963 42.76 107.136 42.3333 107.483 41.96C107.829 41.6133 108.216 41.44 108.643 41.44C108.883 41.44 109.109 41.52 109.323 41.68C109.563 41.84 109.709 41.9333 109.763 41.96C109.896 42.0667 110.069 42.2267 110.283 42.44C110.496 42.68 110.709 42.8 110.923 42.8C111.536 42.8 112.029 42.4133 112.403 41.64C112.776 40.8667 113.136 39.6133 113.483 37.88C111.723 34.9733 110.056 32.0133 108.483 29C106.909 25.9867 106.123 23.9467 106.123 22.88C106.123 22.2133 106.363 21.72 106.843 21.4C107.323 21.08 107.869 20.92 108.483 20.92C108.936 20.92 109.296 21.0133 109.563 21.2C109.829 21.36 110.043 21.6667 110.203 22.12C110.949 24.3867 111.709 26.4133 112.483 28.2C113.256 29.96 114.149 31.7333 115.163 33.52C115.643 32.4533 116.216 30.7067 116.883 28.28C117.283 26.8667 117.629 25.72 117.923 24.84C118.216 23.9333 118.549 23.1067 118.923 22.36C119.163 21.88 119.456 21.4933 119.803 21.2C120.176 20.9067 120.576 20.76 121.003 20.76C121.483 20.76 121.976 20.9333 122.483 21.28C123.016 21.6 123.283 21.9867 123.283 22.44C123.283 22.5733 123.189 22.8933 123.003 23.4C121.963 25.72 121.043 27.96 120.243 30.12C119.443 32.2533 118.696 34.6 118.003 37.16C117.576 38.52 117.123 39.84 116.643 41.12C116.163 42.4267 115.829 43.24 115.643 43.56C115.083 44.3067 114.483 44.92 113.843 45.4C113.203 45.9067 112.429 46.16 111.523 46.16Z" fill="#F02432"/>
</svg>
